<svg width="1000" height="1000" xmlns="http://www.w3.org/2000/svg">
    <circle cx="179" cy="976" r="3" fill="white" />
    <circle cx="308" cy="443" r="1" fill="white" />
    <circle cx="345" cy="874" r="2" fill="white" />
    <circle cx="380" cy="574" r="3" fill="white" />
    <circle cx="456" cy="601" r="1" fill="white" />
    <circle cx="628" cy="770" r="2" fill="white" />
    <circle cx="411" cy="816" r="1" fill="white" />
    <circle cx="333" cy="456" r="1" fill="white" />
    <circle cx="689" cy="228" r="2" fill="white" />
    <circle cx="674" cy="781" r="3" fill="white" />
    <circle cx="185" cy="469" r="1" fill="white" />
    <circle cx="834" cy="555" r="3" fill="white" />
    <circle cx="620" cy="777" r="3" fill="white" />
    <circle cx="170" cy="16" r="2" fill="white" />
    <circle cx="95" cy="166" r="1" fill="white" />
    <circle cx="849" cy="665" r="2" fill="white" />
    <circle cx="690" cy="376" r="2" fill="white" />
    <circle cx="700" cy="721" r="1" fill="white" />
    <circle cx="83" cy="744" r="2" fill="white" />
    <circle cx="612" cy="353" r="1" fill="white" />
    <circle cx="40" cy="645" r="2" fill="white" />
    <circle cx="163" cy="729" r="2" fill="white" />
    <circle cx="638" cy="377" r="1" fill="white" />
    <circle cx="21" cy="308" r="2" fill="white" />
    <circle cx="850" cy="759" r="1" fill="white" />
    <circle cx="114" cy="592" r="1" fill="white" />
    <circle cx="294" cy="799" r="3" fill="white" />
    <circle cx="205" cy="610" r="1" fill="white" />
    <circle cx="129" cy="648" r="1" fill="white" />
    <circle cx="245" cy="84" r="1" fill="white" />
    <circle cx="12" cy="780" r="3" fill="white" />
    <circle cx="38" cy="775" r="3" fill="white" />
    <circle cx="166" cy="824" r="3" fill="white" />
    <circle cx="731" cy="654" r="2" fill="white" />
    <circle cx="178" cy="934" r="3" fill="white" />
    <circle cx="539" cy="902" r="1" fill="white" />
    <circle cx="353" cy="325" r="3" fill="white" />
    <circle cx="686" cy="138" r="3" fill="white" />
    <circle cx="604" cy="579" r="2" fill="white" />
    <circle cx="968" cy="45" r="3" fill="white" />
    <circle cx="842" cy="434" r="3" fill="white" />
    <circle cx="785" cy="640" r="1" fill="white" />
    <circle cx="287" cy="118" r="1" fill="white" />
    <circle cx="439" cy="250" r="1" fill="white" />
    <circle cx="280" cy="579" r="2" fill="white" />
    <circle cx="663" cy="883" r="3" fill="white" />
    <circle cx="905" cy="921" r="1" fill="white" />
    <circle cx="700" cy="959" r="1" fill="white" />
    <circle cx="573" cy="914" r="1" fill="white" />
    <circle cx="879" cy="651" r="3" fill="white" />
    <circle cx="992" cy="622" r="1" fill="white" />
    <circle cx="577" cy="415" r="2" fill="white" />
    <circle cx="817" cy="431" r="1" fill="white" />
    <circle cx="922" cy="264" r="3" fill="white" />
    <circle cx="614" cy="7" r="3" fill="white" />
    <circle cx="251" cy="83" r="1" fill="white" />
    <circle cx="694" cy="264" r="1" fill="white" />
    <circle cx="744" cy="331" r="2" fill="white" />
    <circle cx="465" cy="89" r="2" fill="white" />
    <circle cx="592" cy="737" r="2" fill="white" />
    <circle cx="959" cy="323" r="1" fill="white" />
    <circle cx="101" cy="613" r="1" fill="white" />
    <circle cx="809" cy="845" r="3" fill="white" />
    <circle cx="299" cy="706" r="3" fill="white" />
    <circle cx="187" cy="935" r="3" fill="white" />
    <circle cx="538" cy="444" r="3" fill="white" />
    <circle cx="123" cy="85" r="2" fill="white" />
    <circle cx="7" cy="612" r="1" fill="white" />
    <circle cx="376" cy="268" r="2" fill="white" />
    <circle cx="384" cy="459" r="3" fill="white" />
    <circle cx="419" cy="426" r="3" fill="white" />
    <circle cx="780" cy="323" r="3" fill="white" />
    <circle cx="60" cy="427" r="3" fill="white" />
    <circle cx="385" cy="494" r="3" fill="white" />
    <circle cx="681" cy="321" r="1" fill="white" />
    <circle cx="272" cy="7" r="1" fill="white" />
    <circle cx="1" cy="943" r="1" fill="white" />
    <circle cx="767" cy="235" r="3" fill="white" />
    <circle cx="2" cy="166" r="2" fill="white" />
    <circle cx="452" cy="209" r="1" fill="white" />
    <circle cx="824" cy="549" r="3" fill="white" />
    <circle cx="412" cy="925" r="3" fill="white" />
    <circle cx="901" cy="769" r="1" fill="white" />
    <circle cx="70" cy="725" r="2" fill="white" />
    <circle cx="823" cy="244" r="3" fill="white" />
    <circle cx="456" cy="212" r="1" fill="white" />
    <circle cx="107" cy="560" r="2" fill="white" />
    <circle cx="810" cy="958" r="1" fill="white" />
    <circle cx="518" cy="279" r="3" fill="white" />
    <circle cx="552" cy="890" r="3" fill="white" />
    <circle cx="277" cy="920" r="1" fill="white" />
    <circle cx="121" cy="487" r="1" fill="white" />
    <circle cx="845" cy="563" r="2" fill="white" />
    <circle cx="63" cy="415" r="2" fill="white" />
    <circle cx="185" cy="215" r="3" fill="white" />
    <circle cx="719" cy="938" r="2" fill="white" />
    <circle cx="795" cy="797" r="1" fill="white" />
    <circle cx="392" cy="177" r="1" fill="white" />
    <circle cx="712" cy="530" r="1" fill="white" />
    <circle cx="58" cy="906" r="3" fill="white" />
</svg>
