<svg width="1000" height="1000" xmlns="http://www.w3.org/2000/svg">
    <circle cx="60" cy="364" r="1" fill="white" />
    <circle cx="514" cy="953" r="2" fill="white" />
    <circle cx="587" cy="121" r="3" fill="white" />
    <circle cx="511" cy="511" r="1" fill="white" />
    <circle cx="928" cy="714" r="3" fill="white" />
    <circle cx="194" cy="380" r="1" fill="white" />
    <circle cx="960" cy="100" r="1" fill="white" />
    <circle cx="315" cy="685" r="2" fill="white" />
    <circle cx="761" cy="287" r="2" fill="white" />
    <circle cx="208" cy="649" r="3" fill="white" />
    <circle cx="415" cy="707" r="2" fill="white" />
    <circle cx="370" cy="685" r="2" fill="white" />
    <circle cx="860" cy="222" r="2" fill="white" />
    <circle cx="365" cy="736" r="1" fill="white" />
    <circle cx="692" cy="702" r="2" fill="white" />
    <circle cx="328" cy="937" r="2" fill="white" />
    <circle cx="961" cy="932" r="1" fill="white" />
    <circle cx="979" cy="32" r="2" fill="white" />
    <circle cx="12" cy="537" r="3" fill="white" />
    <circle cx="200" cy="740" r="3" fill="white" />
    <circle cx="458" cy="991" r="2" fill="white" />
    <circle cx="82" cy="115" r="1" fill="white" />
    <circle cx="914" cy="640" r="2" fill="white" />
    <circle cx="824" cy="969" r="3" fill="white" />
    <circle cx="829" cy="348" r="1" fill="white" />
    <circle cx="592" cy="572" r="3" fill="white" />
    <circle cx="29" cy="28" r="2" fill="white" />
    <circle cx="727" cy="133" r="3" fill="white" />
    <circle cx="590" cy="768" r="2" fill="white" />
    <circle cx="153" cy="492" r="1" fill="white" />
    <circle cx="375" cy="762" r="2" fill="white" />
    <circle cx="715" cy="42" r="1" fill="white" />
    <circle cx="850" cy="254" r="2" fill="white" />
    <circle cx="452" cy="607" r="3" fill="white" />
    <circle cx="686" cy="541" r="3" fill="white" />
    <circle cx="842" cy="795" r="1" fill="white" />
    <circle cx="760" cy="682" r="1" fill="white" />
    <circle cx="466" cy="93" r="3" fill="white" />
    <circle cx="2" cy="409" r="2" fill="white" />
    <circle cx="367" cy="949" r="1" fill="white" />
    <circle cx="973" cy="44" r="1" fill="white" />
    <circle cx="508" cy="633" r="2" fill="white" />
    <circle cx="549" cy="331" r="2" fill="white" />
    <circle cx="842" cy="912" r="1" fill="white" />
    <circle cx="170" cy="555" r="1" fill="white" />
    <circle cx="423" cy="565" r="3" fill="white" />
    <circle cx="295" cy="929" r="2" fill="white" />
    <circle cx="477" cy="834" r="1" fill="white" />
    <circle cx="127" cy="664" r="3" fill="white" />
    <circle cx="562" cy="453" r="3" fill="white" />
    <circle cx="826" cy="491" r="3" fill="white" />
    <circle cx="254" cy="408" r="2" fill="white" />
    <circle cx="794" cy="150" r="2" fill="white" />
    <circle cx="355" cy="88" r="2" fill="white" />
    <circle cx="746" cy="20" r="3" fill="white" />
    <circle cx="241" cy="993" r="3" fill="white" />
    <circle cx="664" cy="305" r="3" fill="white" />
    <circle cx="240" cy="963" r="3" fill="white" />
    <circle cx="566" cy="271" r="2" fill="white" />
    <circle cx="201" cy="522" r="2" fill="white" />
    <circle cx="16" cy="674" r="2" fill="white" />
    <circle cx="291" cy="903" r="3" fill="white" />
    <circle cx="919" cy="84" r="3" fill="white" />
    <circle cx="506" cy="622" r="2" fill="white" />
    <circle cx="93" cy="484" r="1" fill="white" />
    <circle cx="348" cy="530" r="2" fill="white" />
    <circle cx="654" cy="829" r="1" fill="white" />
    <circle cx="594" cy="404" r="1" fill="white" />
    <circle cx="599" cy="885" r="2" fill="white" />
    <circle cx="526" cy="91" r="3" fill="white" />
    <circle cx="323" cy="871" r="3" fill="white" />
    <circle cx="886" cy="754" r="1" fill="white" />
    <circle cx="217" cy="123" r="2" fill="white" />
    <circle cx="374" cy="286" r="3" fill="white" />
    <circle cx="809" cy="304" r="2" fill="white" />
    <circle cx="624" cy="733" r="3" fill="white" />
    <circle cx="364" cy="767" r="1" fill="white" />
    <circle cx="343" cy="794" r="2" fill="white" />
    <circle cx="8" cy="963" r="1" fill="white" />
    <circle cx="853" cy="808" r="3" fill="white" />
    <circle cx="163" cy="735" r="2" fill="white" />
    <circle cx="500" cy="76" r="1" fill="white" />
    <circle cx="62" cy="167" r="1" fill="white" />
    <circle cx="971" cy="594" r="1" fill="white" />
    <circle cx="915" cy="195" r="2" fill="white" />
    <circle cx="513" cy="172" r="2" fill="white" />
    <circle cx="516" cy="244" r="1" fill="white" />
    <circle cx="5" cy="854" r="3" fill="white" />
    <circle cx="774" cy="450" r="1" fill="white" />
    <circle cx="254" cy="368" r="3" fill="white" />
    <circle cx="987" cy="451" r="1" fill="white" />
    <circle cx="83" cy="99" r="2" fill="white" />
    <circle cx="365" cy="544" r="3" fill="white" />
    <circle cx="933" cy="734" r="1" fill="white" />
    <circle cx="983" cy="772" r="2" fill="white" />
    <circle cx="753" cy="849" r="2" fill="white" />
    <circle cx="692" cy="895" r="2" fill="white" />
    <circle cx="219" cy="945" r="2" fill="white" />
    <circle cx="497" cy="827" r="3" fill="white" />
    <circle cx="83" cy="867" r="3" fill="white" />
</svg>
