<?xml version="1.0" encoding="iso-8859-1"?>
<!-- Generator: Adobe Illustrator 18.1.0, SVG Export Plug-In . SVG Version: 6.00 Build 0)  -->
<!DOCTYPE svg PUBLIC "-//W3C//DTD SVG 1.1//EN" "http://www.w3.org/Graphics/SVG/1.1/DTD/svg11.dtd">
<svg version="1.1" xmlns="http://www.w3.org/2000/svg" xmlns:xlink="http://www.w3.org/1999/xlink" x="0px" y="0px"
	 viewBox="0 0 512 700" enable-background="new 0 0 512 512" xml:space="preserve">
<g id="station">
	<rect x="25" y="0" width="100" height="600" style="fill: none; stroke: white; stroke-width: 25px" />
	<line x1="25" y1="0" x2="125" y2="100" style="stroke: white; stroke-width: 15px" />
	<line x1="25" y1="100" x2="125" y2="200" style="stroke: white; stroke-width: 15px" />
	<line x1="25" y1="200" x2="125" y2="300" style="stroke: white; stroke-width: 15px" />
	<line x1="25" y1="300" x2="125" y2="400" style="stroke: white; stroke-width: 15px" />
	<line x1="25" y1="400" x2="125" y2="500" style="stroke: white; stroke-width: 15px" />
	<line x1="25" y1="500" x2="125" y2="600" style="stroke: white; stroke-width: 15px" />

	<ellipse cx="100" cy="650" rx="100" ry="40" style="fill: white; stroke: black; stroke-width: 5px" />
	<ellipse cx="100" cy="630" rx="100" ry="40" style="fill: white; stroke: black; stroke-width: 5px" />
	<ellipse cx="100" cy="610" rx="100" ry="40" style="fill: white; stroke: black; stroke-width: 5px" />
	<ellipse cx="100" cy="590" rx="100" ry="40" style="fill: white; stroke: black; stroke-width: 5px" />
	<ellipse cx="100" cy="570" rx="100" ry="40" style="fill: white; stroke: black; stroke-width: 5px" />
	<ellipse cx="100" cy="550" rx="100" ry="40" style="fill: white; stroke: black; stroke-width: 5px" />

	<ellipse cx="410" cy="650" rx="100" ry="40" style="fill: white; stroke: black; stroke-width: 5px" />
	<ellipse cx="410" cy="630" rx="100" ry="40" style="fill: white; stroke: black; stroke-width: 5px" />
	<ellipse cx="410" cy="610" rx="100" ry="40" style="fill: white; stroke: black; stroke-width: 5px" />
	<ellipse cx="410" cy="590" rx="100" ry="40" style="fill: white; stroke: black; stroke-width: 5px" />
	<ellipse cx="410" cy="570" rx="100" ry="40" style="fill: white; stroke: black; stroke-width: 5px" />
	<ellipse cx="410" cy="550" rx="100" ry="40" style="fill: white; stroke: black; stroke-width: 5px" />
	<ellipse cx="410" cy="530" rx="100" ry="40" style="fill: white; stroke: black; stroke-width: 5px" />

	<ellipse cx="260" cy="650" rx="100" ry="40" style="fill: white; stroke: black; stroke-width: 5px" />
	<ellipse cx="260" cy="630" rx="100" ry="40" style="fill: white; stroke: black; stroke-width: 5px" />
	<ellipse cx="260" cy="610" rx="100" ry="40" style="fill: white; stroke: black; stroke-width: 5px" />
</g>
</svg>
